# xmcd
#
# Track frame offsets: 
#        150
#        16983
#        31677
#        46110
#        70796
#        86678
#        104350
#        126058
#        141535
#        165555
#        183658
#        209375
#        225728
#
# Disc length: 3304 seconds
#
# Revision: 0
# Processed by: cddbd v1.5.2PL0 Copyright (c) Steve Scherf et al.
# Submitted via: ExactAudioCopy v0.99pb4
#
DISCID=ac0ce60d
DTITLE=Cam Ly - Quoc Dai - Co Gai Mo Duong
DYEAR=2006
DGENRE=Vietnamese
TTITLE0=bai ca may ao
TTITLE1=nhu khuc tinh ca
TTITLE2=bai ca nguoi nu tu ve Sai Gon
TTITLE3=tinh dong chi
TTITLE4=co gai mo duong
TTITLE5=dan sao Hau Giang
TTITLE6=huong tham
TTITLE7=qua song
TTITLE8=hay yen long me oi
TTITLE9=em di bo doi
TTITLE10=khuc hat nguoi di khai hoang
TTITLE11=anh Ba Hung
TTITLE12=vam co dong
EXTD=
EXTT0=
EXTT1=
EXTT2=
EXTT3=
EXTT4=
EXTT5=
EXTT6=
EXTT7=
EXTT8=
EXTT9=
EXTT10=
EXTT11=
EXTT12=
PLAYORDER=
